<svg width="45" height="46" viewBox="0 0 45 46" fill="none" xmlns="http://www.w3.org/2000/svg">
<path d="M10.0829 45.1274H0.791082V15.3343H10.0829V45.1274ZM5.43196 11.2702C2.46076 11.2702 0.0507812 8.8198 0.0507812 5.86141C0.0507813 4.44038 0.617726 3.07755 1.62689 2.07274C2.63606 1.06792 4.00479 0.503418 5.43196 0.503418C6.85914 0.503418 8.22787 1.06792 9.23703 2.07274C10.2462 3.07755 10.8131 4.44038 10.8131 5.86141C10.8131 8.8198 8.40217 11.2702 5.43196 11.2702ZM44.859 45.1274H35.5872V30.6243C35.5872 27.1678 35.5172 22.7352 30.7562 22.7352C25.9253 22.7352 25.185 26.4905 25.185 30.3753V45.1274H15.9032V15.3343H24.8148V19.3983H24.9449C26.1854 17.0575 29.2156 14.5872 33.7364 14.5872C43.1403 14.5872 44.869 20.753 44.869 28.7616V45.1274H44.859Z" fill="#0A66C2"/>
</svg>
