<svg width="46" height="37" viewBox="0 0 46 37" fill="none" xmlns="http://www.w3.org/2000/svg">
<path d="M41.2327 9.12175C41.2619 9.51548 41.2619 9.90929 41.2619 10.303C41.2619 22.3123 31.7965 36.1499 14.4965 36.1499C9.16672 36.1499 4.21559 34.6592 0.0507812 32.0718C0.808044 32.1561 1.53608 32.1843 2.32248 32.1843C6.7202 32.1843 10.7686 30.75 14.0014 28.3031C9.86571 28.2187 6.39989 25.6031 5.20577 22.003C5.7883 22.0873 6.37075 22.1436 6.98242 22.1436C7.82701 22.1436 8.67168 22.0311 9.45799 21.8343C5.14758 20.9905 1.91467 17.3343 1.91467 12.9186V12.8062C3.16697 13.4812 4.62332 13.9031 6.1668 13.9592C3.63297 12.328 1.97294 9.54361 1.97294 6.39359C1.97294 4.70612 2.43885 3.15925 3.25438 1.80924C7.88519 7.32173 14.846 10.9217 22.6512 11.3155C22.5056 10.6405 22.4182 9.93743 22.4182 9.23429C22.4182 4.22798 26.6122 0.149902 31.8254 0.149902C34.534 0.149902 36.9804 1.24677 38.6988 3.01865C40.8248 2.62492 42.8635 1.86551 44.6693 0.824907C43.9703 2.93433 42.485 4.70621 40.5337 5.83113C42.4268 5.63435 44.2616 5.12799 45.9508 4.42493C44.6695 6.22486 43.0676 7.82792 41.2327 9.12175Z" fill="#1DA1F2"/>
</svg>
